<svg width="45" height="46" viewBox="0 0 45 46" fill="none" xmlns="http://www.w3.org/2000/svg">
    <g clip-path="url(#clip0_18_50)">
        <path d="M30.9356 0C28.5365 0.169624 25.7325 1.73936 24.0984 3.78348C22.6078 5.63784 21.3815 8.39208 21.8597 11.0687C24.4809 11.1521 27.1893 9.54494 28.7587 7.46633C30.2268 5.53147 31.3377 2.79448 30.9356 0Z" fill="black"/>
        <path d="M40.4165 15.4329C38.113 12.4803 34.8759 10.7668 31.8187 10.7668C27.7828 10.7668 26.0756 12.742 23.2716 12.742C20.3803 12.742 18.1838 10.7726 14.6935 10.7726C11.2651 10.7726 7.61448 12.9145 5.2998 16.5772C2.04576 21.7349 2.60263 31.4322 7.87604 39.6921C9.76321 42.6475 12.2832 45.971 15.5794 45.9998C18.5129 46.0285 19.3397 44.0764 23.3138 44.0563C27.2878 44.0333 28.0415 46.0256 30.9693 45.994C34.2684 45.9681 36.9262 42.2853 38.8134 39.3298C40.1662 37.2109 40.6696 36.1443 41.7187 33.7523C34.0884 30.7825 32.865 19.6908 40.4165 15.4329Z" fill="black"/>
    </g>
    <defs>
        <clipPath id="clip0_18_50">
            <rect width="45" height="46" fill="white"/>
        </clipPath>
    </defs>
</svg>
