<svg width="48" height="48" viewBox="0 0 48 48" fill="none" xmlns="http://www.w3.org/2000/svg">
    <g clip-path="url(#clip0_18_30)">
        <path d="M10.6378 29.007L8.967 35.2444L2.86022 35.3736C1.03519 31.9886 0 28.1156 0 24C0 20.0202 0.967875 16.2672 2.6835 12.9626H2.68481L8.12156 13.9594L10.5032 19.3635C10.0047 20.8167 9.73303 22.3767 9.73303 24C9.73322 25.7618 10.0523 27.4497 10.6378 29.007Z" fill="#FBBB00"/>
        <path d="M47.5807 19.5165C47.8563 20.9683 48 22.4676 48 24C48 25.7182 47.8194 27.3943 47.4752 29.011C46.3069 34.5125 43.2541 39.3165 39.0251 42.716L39.0238 42.7147L32.176 42.3653L31.2068 36.3152C34.0129 34.6695 36.2059 32.0941 37.3611 29.011H24.5276V19.5165H37.5483H47.5807Z" fill="#518EF8"/>
        <path d="M39.0237 42.7147L39.025 42.716C34.9121 46.0219 29.6874 48 24 48C14.8602 48 6.91389 42.8914 2.86023 35.3736L10.6378 29.0071C12.6646 34.4163 17.8826 38.2669 24 38.2669C26.6294 38.2669 29.0928 37.556 31.2066 36.3152L39.0237 42.7147Z" fill="#28B446"/>
        <path d="M39.3192 5.52525L31.5442 11.8905C29.3565 10.5231 26.7705 9.73312 24 9.73312C17.7442 9.73312 12.4286 13.7603 10.5033 19.3635L2.68485 12.9626H2.68353C6.67785 5.26153 14.7244 0 24 0C29.8233 0 35.1627 2.07431 39.3192 5.52525Z" fill="#F14336"/>
    </g>
    <defs>
        <clipPath id="clip0_18_30">
            <rect width="48" height="48" fill="white"/>
        </clipPath>
    </defs>
</svg>
