<svg width="34" height="34" viewBox="0 0 34 34" fill="none" xmlns="http://www.w3.org/2000/svg">
    <path d="M31.1941 15.0486C31.1935 15.0479 31.1928 15.0472 31.1921 15.0465L18.9532 2.80933C18.4315 2.28748 17.7379 2 17.0002 2C16.2624 2 15.5688 2.28725 15.0469 2.8091L2.81448 15.0401C2.81036 15.0442 2.80623 15.0486 2.80211 15.0527C1.73084 16.13 1.73267 17.878 2.80738 18.9526C3.29838 19.4438 3.94687 19.7283 4.64022 19.758C4.66838 19.7608 4.69676 19.7621 4.72538 19.7621H5.21317V28.768C5.21317 30.55 6.66329 32 8.446 32H13.2342C13.7195 32 14.1132 31.6066 14.1132 31.1211V24.0605C14.1132 23.2473 14.7748 22.5859 15.5881 22.5859H18.4123C19.2256 22.5859 19.8871 23.2473 19.8871 24.0605V31.1211C19.8871 31.6066 20.2806 32 20.7661 32H25.5544C27.3371 32 28.7872 30.55 28.7872 28.768V19.7621H29.2395C29.9771 19.7621 30.6706 19.4749 31.1928 18.953C32.2686 17.8766 32.2691 16.1257 31.1941 15.0486V15.0486Z" fill="#436DFF"/>
</svg>
